<svg width="774" height="903" xmlns="http://www.w3.org/2000/svg" xmlns:xlink="http://www.w3.org/1999/xlink" xml:space="preserve" overflow="hidden"><g transform="translate(-3276 -825)"><path d="M3879.75 1644.81C3891.02 1644.81 3900.71 1648.92 3908.82 1657.12 3916.94 1665.32 3921 1675.17 3921 1686.65 3921 1698.14 3916.94 1707.9 3908.82 1715.94 3900.71 1723.98 3891.02 1728 3879.75 1728 3868.49 1728 3858.88 1723.9 3850.93 1715.69 3842.98 1707.49 3839 1697.81 3839 1686.65 3839 1675.17 3842.98 1665.32 3850.93 1657.12 3858.88 1648.92 3868.49 1644.81 3879.75 1644.81ZM3843.47 1348 3916.03 1348 3906.09 1606.42 3853.41 1606.42Z" fill="#F2F2F2" fill-rule="evenodd"/><path d="M3663 1563.5C3468.32 1563.5 3310.5 1405.9 3310.5 1211.5 3310.5 1017.1 3468.32 859.5 3663 859.5 3857.68 859.5 4015.5 1017.1 4015.5 1211.5" stroke="#F2F2F2" stroke-width="68.75" stroke-linecap="round" stroke-linejoin="round" stroke-miterlimit="10" fill="none" fill-rule="evenodd"/><path d="M3592.5 1211.5 3592.5 1089.5 3698 1150.5 3803.5 1211.5 3698 1272.5 3592.5 1333.5 3592.5 1211.5Z" stroke="#F2F2F2" stroke-width="68.75" stroke-linejoin="round" stroke-miterlimit="10" fill="none" fill-rule="evenodd"/></g></svg>