<svg width="808" height="842" xmlns="http://www.w3.org/2000/svg" xmlns:xlink="http://www.w3.org/1999/xlink" xml:space="preserve" overflow="hidden"><g transform="translate(-2943 -817)"><path d="M3329.5 1556.5C3135.1 1556.5 2977.5 1398.68 2977.5 1204 2977.5 1009.32 3135.1 851.5 3329.5 851.5 3523.9 851.5 3681.5 1009.32 3681.5 1204" stroke="#F2F2F2" stroke-width="68.75" stroke-linecap="round" stroke-linejoin="round" stroke-miterlimit="10" fill="none" fill-rule="evenodd"/><path d="M3259.5 1204.5 3259.5 1082.5 3365 1143.5 3470.5 1204.5 3365 1265.5 3259.5 1326.5 3259.5 1204.5Z" stroke="#F2F2F2" stroke-width="68.75" stroke-linejoin="round" stroke-miterlimit="10" fill="none" fill-rule="evenodd"/><path d="M3716.5 1344.5 3637.5 1363.88 3637.5 1554.5" stroke="#F2F2F2" stroke-width="68.75" stroke-linecap="round" stroke-linejoin="round" stroke-miterlimit="10" fill="none" fill-rule="evenodd"/><path d="M3637.5 1544.5C3637.5 1588.68 3601.68 1624.5 3557.5 1624.5 3513.32 1624.5 3477.5 1588.68 3477.5 1544.5 3477.5 1500.32 3513.32 1464.5 3557.5 1464.5 3601.68 1464.5 3637.5 1500.32 3637.5 1544.5Z" stroke="#F2F2F2" stroke-width="68.75" stroke-linecap="round" stroke-linejoin="round" stroke-miterlimit="10" fill="none" fill-rule="evenodd"/></g></svg>