<svg width="2797" height="510" xmlns="http://www.w3.org/2000/svg" xmlns:xlink="http://www.w3.org/1999/xlink" xml:space="preserve" overflow="hidden"><g transform="translate(-597 -707)"><path d="M1540.94 891.921 1581.13 891.921 1581.13 1148.79 1540.94 1148.79ZM1769.17 885.135C1785.63 885.135 1800 889.659 1812.26 898.706 1824.53 907.753 1834.21 920.839 1841.31 937.964L1843.73 937.964C1852.45 921.485 1864.23 908.561 1879.08 899.19 1893.93 889.82 1910.55 885.135 1928.95 885.135 1956.07 885.135 1977.21 894.021 1992.38 911.792 2007.55 929.563 2015.14 954.28 2015.14 985.945L2015.14 1148.79 1974.95 1148.79 1974.95 991.761C1974.95 970.759 1969.95 953.877 1959.94 941.114 1949.93 928.351 1936.7 921.97 1920.24 921.97 1900.87 921.97 1885.29 928.755 1873.51 942.326 1861.73 955.896 1855.84 973.99 1855.84 996.608L1855.84 1148.79 1815.17 1148.79 1815.17 991.761C1815.17 970.759 1810.16 953.877 1800.16 941.114 1790.15 928.351 1777.08 921.97 1760.94 921.97 1741.57 921.97 1725.92 928.836 1713.97 942.568 1702.03 956.3 1696.06 974.313 1696.06 996.608L1696.06 1148.79 1655.87 1148.79 1655.87 891.921 1696.06 891.921 1696.06 927.786 1698.48 927.786C1706.55 914.861 1716.96 904.522 1729.71 896.767 1742.46 889.013 1755.61 885.135 1769.17 885.135ZM3051.69 884.651 3104.47 884.651 3104.47 1151.21 3051.69 1151.21ZM2514.97 884.651 2568.23 884.651 2568.23 1046.04C2568.23 1065.11 2573.39 1080.45 2583.72 1092.09 2594.05 1103.72 2607.29 1109.53 2623.43 1109.53 2642.79 1109.53 2658.45 1103.31 2670.39 1090.87 2682.34 1078.43 2688.31 1061.88 2688.31 1041.2L2688.31 884.651 2741.08 884.651 2741.08 1151.21 2688.31 1151.21 2688.31 1115.35 2685.4 1115.35C2677.33 1128.27 2666.12 1138.61 2651.75 1146.37 2637.39 1154.12 2622.14 1158 2606 1158 2577.59 1158 2555.32 1149.11 2539.18 1131.34 2523.04 1113.57 2514.97 1088.53 2514.97 1056.22ZM3292.32 878.35C3312.98 878.35 3332.59 884.085 3351.15 895.556 3369.71 907.026 3383.99 922.293 3394 941.356L3348.97 965.589C3342.51 953.957 3333.88 944.829 3323.07 938.206 3312.25 931.582 3300.71 928.27 3288.45 928.27 3267.14 928.27 3250.04 936.429 3237.12 952.746 3224.21 969.062 3217.76 990.792 3217.76 1017.93 3217.76 1045.07 3224.21 1066.96 3237.12 1083.6 3250.04 1100.24 3266.98 1108.56 3287.96 1108.56 3300.55 1108.56 3312.25 1105.17 3323.07 1098.39 3333.88 1091.6 3342.51 1082.39 3348.97 1070.76L3394 1094.99C3383.99 1114.38 3369.71 1129.73 3351.15 1141.04 3332.59 1152.35 3312.98 1158 3292.32 1158 3266.17 1158 3243.42 1152.26 3224.05 1140.79 3204.68 1129.32 3189.75 1113.01 3179.26 1091.84 3168.77 1070.68 3163.53 1046.04 3163.53 1017.93 3163.53 989.822 3168.77 965.185 3179.26 944.022 3189.75 922.858 3204.68 906.622 3224.05 895.313 3243.42 884.004 3266.17 878.35 3292.32 878.35ZM2894.95 877.865C2918.51 877.865 2939.17 883.197 2956.92 893.859 2974.68 904.522 2988.88 919.385 2999.53 938.448L2956.92 963.166C2949.17 950.565 2939.97 940.871 2929.32 934.086 2918.67 927.301 2907.21 923.908 2894.95 923.908 2880.74 923.908 2869.44 926.978 2861.05 933.117 2852.66 939.256 2848.46 947.334 2848.46 957.35 2848.46 966.397 2853.22 974.071 2862.75 980.371 2872.27 986.672 2887.2 992.084 2907.53 996.608 2968.54 1010.18 2999.05 1036.35 2999.05 1075.12 2999.05 1100.33 2989.77 1120.44 2971.21 1135.46 2952.64 1150.49 2928.03 1158 2897.37 1158 2871.22 1158 2848.71 1152.26 2829.82 1140.79 2810.94 1129.32 2796.82 1113.9 2787.46 1094.51L2832 1071.73C2838.46 1084.33 2847.41 1094.19 2858.87 1101.29 2870.33 1108.4 2883.33 1111.96 2897.85 1111.96 2912.7 1111.96 2924.24 1109.13 2932.47 1103.48 2940.7 1097.82 2944.82 1090.15 2944.82 1080.45 2944.82 1071.08 2940.54 1063.41 2931.99 1057.43 2923.43 1051.46 2909.31 1046.2 2889.62 1041.68 2857.99 1034.25 2834.18 1024.15 2818.2 1011.39 2802.22 998.627 2794.23 981.906 2794.23 961.227 2794.23 935.702 2803.35 915.427 2821.59 900.402 2839.83 885.378 2864.28 877.865 2894.95 877.865ZM2084.55 776.571 2137.32 776.571 2265.63 989.338 2268.54 989.338 2396.85 776.571 2449.14 776.571 2449.14 1151.21 2395.39 1151.21 2395.39 881.743 2392.49 881.743 2285 1060.58 2249.17 1060.58 2141.2 882.227 2138.29 882.227 2138.29 1151.21 2084.55 1151.21ZM1560.31 773.663C1568.7 773.663 1575.48 776.167 1580.64 781.175 1585.81 786.183 1588.39 792.888 1588.39 801.289 1588.39 809.689 1585.81 816.313 1580.64 821.16 1575.48 826.006 1568.7 828.43 1560.31 828.43 1551.92 828.43 1545.38 826.006 1540.7 821.16 1536.02 816.313 1533.68 809.689 1533.68 801.289 1533.68 792.888 1536.1 786.183 1540.94 781.175 1545.78 776.167 1552.24 773.663 1560.31 773.663ZM1354.12 773.663C1381.56 773.663 1405.28 779.317 1425.3 790.626 1445.31 801.935 1461.77 817.929 1474.68 838.608L1441.76 862.356C1431.11 847.17 1418.11 835.215 1402.78 826.491 1387.45 817.767 1370.91 813.405 1353.15 813.405 1337.98 813.405 1324.18 816.071 1311.75 821.402 1299.33 826.734 1289.56 833.923 1282.46 842.97 1275.36 852.017 1271.81 862.033 1271.81 873.019 1271.81 887.559 1275.84 899.433 1283.91 908.641 1291.98 917.85 1302.15 924.958 1314.42 929.967 1326.68 934.975 1343.15 940.225 1363.8 945.718 1387.04 952.18 1406.73 959.289 1422.87 967.043 1439.01 974.798 1452.25 985.622 1462.58 999.516 1472.91 1013.41 1478.07 1031.18 1478.07 1052.83 1478.07 1073.51 1472.91 1091.6 1462.58 1107.11 1452.25 1122.62 1437.64 1134.57 1418.76 1142.98 1399.88 1151.38 1377.84 1155.58 1352.67 1155.58 1324.26 1155.58 1298.44 1149.2 1275.2 1136.43 1251.96 1123.67 1233.56 1105.5 1220 1081.91L1255.83 1060.1C1266.48 1078.52 1280.04 1092.41 1296.5 1101.78 1312.96 1111.15 1331.85 1115.83 1353.15 1115.83 1368.65 1115.83 1382.69 1113.17 1395.28 1107.84 1407.86 1102.51 1417.71 1095.16 1424.81 1085.79 1431.91 1076.42 1435.46 1065.91 1435.46 1054.28 1435.46 1042 1432.32 1031.66 1426.02 1023.26 1419.73 1014.86 1410.04 1007.51 1396.97 1001.21 1383.9 994.911 1366.22 988.53 1343.95 982.068 1319.74 974.959 1299.89 967.932 1284.4 960.985 1268.9 954.038 1255.83 943.779 1245.18 930.209 1234.53 916.638 1229.2 898.706 1229.2 876.411 1229.2 856.702 1234.44 839.012 1244.94 823.341 1255.43 807.67 1270.11 795.473 1289 786.749 1307.88 778.025 1329.59 773.663 1354.12 773.663ZM3077.35 763C3087.68 763 3096 766.07 3102.29 772.209 3108.58 778.348 3111.73 786.587 3111.73 796.927 3111.73 807.266 3108.58 815.505 3102.29 821.645 3096 827.783 3087.68 830.853 3077.35 830.853 3067.35 830.853 3059.36 827.783 3053.39 821.645 3047.42 815.505 3044.43 807.266 3044.43 796.927 3044.43 786.587 3047.42 778.348 3053.39 772.209 3059.36 766.07 3067.35 763 3077.35 763Z" fill-rule="evenodd"/><path d="M830.714 1154C713.493 1154 618 1058.51 618 940.714 618 823.493 713.493 728 830.714 728 948.507 728 1044 823.493 1044 940.714" stroke="#1E9FFF" stroke-width="41.8231" stroke-linecap="round" stroke-linejoin="round" stroke-miterlimit="10" fill="none" fill-rule="evenodd"/><path d="M788.5 941.214 788.5 867.5 852.787 904.643 916.5 941.214 852.787 978.357 788.5 1015.5 788.5 941.214Z" stroke="#000000" stroke-width="3.4375" stroke-linejoin="round" stroke-miterlimit="10" fill="#FFFFFF" fill-rule="evenodd"/><path d="M788 940.714 788 867 852.287 904.143 916 940.714 852.287 977.857 788 1015 788 940.714Z" stroke="#1E9FFF" stroke-width="41.8231" stroke-linejoin="round" stroke-miterlimit="10" fill="#1E9FFF" fill-rule="evenodd"/><path d="M1066 1026 1017 1038.01 1017 1153" stroke="#1E9FFF" stroke-width="41.8231" stroke-linecap="round" stroke-linejoin="round" stroke-miterlimit="10" fill="none" fill-rule="evenodd"/><path d="M921 1147C921 1119.94 942.49 1098 969 1098 995.51 1098 1017 1119.94 1017 1147 1017 1174.06 995.51 1196 969 1196 942.49 1196 921 1174.06 921 1147Z" stroke="#1E9FFF" stroke-width="41.8231" stroke-linecap="round" stroke-linejoin="round" stroke-miterlimit="10" fill="none" fill-rule="evenodd"/></g></svg>