<svg width="1894" height="1893" xmlns="http://www.w3.org/2000/svg" xmlns:xlink="http://www.w3.org/1999/xlink" xml:space="preserve" overflow="hidden"><g transform="translate(-1253 -291)"><rect x="1253" y="291" width="1894" height="1893" fill="#7F7F7F" fill-opacity="0.101961"/><path d="M2200.5 1559.5C2006.1 1559.5 1848.5 1401.9 1848.5 1207.5 1848.5 1013.1 2006.1 855.5 2200.5 855.5 2394.9 855.5 2552.5 1013.1 2552.5 1207.5" stroke="#FFFFFF" stroke-width="68.75" stroke-linecap="round" stroke-linejoin="round" stroke-miterlimit="10" fill="none" fill-rule="evenodd"/><path d="M2130.5 1207.5 2130.5 1085.5 2236 1146.5 2341.5 1207.5 2236 1268.5 2130.5 1329.5 2130.5 1207.5Z" stroke="#FFFFFF" stroke-width="68.75" stroke-linejoin="round" stroke-miterlimit="10" fill="#FFFFFF" fill-rule="evenodd"/><path d="M2587.5 1348.5 2508.5 1367.78 2508.5 1557.5" stroke="#FFFFFF" stroke-width="68.75" stroke-linecap="round" stroke-linejoin="round" stroke-miterlimit="10" fill="none" fill-rule="evenodd"/><path d="M2508.5 1548C2508.5 1591.91 2472.68 1627.5 2428.5 1627.5 2384.32 1627.5 2348.5 1591.91 2348.5 1548 2348.5 1504.09 2384.32 1468.5 2428.5 1468.5 2472.68 1468.5 2508.5 1504.09 2508.5 1548Z" stroke="#FFFFFF" stroke-width="68.75" stroke-linecap="round" stroke-linejoin="round" stroke-miterlimit="10" fill="none" fill-rule="evenodd"/></g></svg>